HIERARCHY
ROOT Hips
{
	OFFSET 0.000000 0.000000 0.000000 
	CHANNELS 6 Xposition Yposition Zposition Zrotation Yrotation Xrotation
	JOINT LeftUpLeg
	{
		OFFSET 1.363060 -1.794630 0.839290 
		CHANNELS 3 Zrotation Yrotation Xrotation
		JOINT LeftLeg
		{
			OFFSET 2.448110 -6.726130 0.000000 
			CHANNELS 3 Zrotation Yrotation Xrotation
			JOINT LeftFoot
			{
				OFFSET 2.562200 -7.039590 0.000000 
				CHANNELS 3 Zrotation Yrotation Xrotation
				JOINT LeftToeBase
				{
					OFFSET 0.157640 -0.433110 2.322550 
					CHANNELS 3 Zrotation Yrotation Xrotation
					End Site
					{
						OFFSET 0.000000 0.000000 0.000000 
					}
				}
			}
		}
	}
	JOINT RightUpLeg
	{
		OFFSET -1.305520 -1.794630 0.839290 
		CHANNELS 3 Zrotation Yrotation Xrotation
		JOINT RightLeg
		{
			OFFSET -2.542530 -6.985550 0.000000 
			CHANNELS 3 Zrotation Yrotation Xrotation
			JOINT RightFoot
			{
				OFFSET -2.568260 -7.056230 0.000000 
				CHANNELS 3 Zrotation Yrotation Xrotation
				JOINT RightToeBase
				{
					OFFSET -0.164730 -0.452590 2.363150 
					CHANNELS 3 Zrotation Yrotation Xrotation
					End Site
					{
						OFFSET 0.000000 0.000000 0.000000 
					}
				}
			}
		}
	}
	JOINT Spine
	{
		OFFSET 0.028270 2.035590 -0.193380 
		CHANNELS 3 Zrotation Yrotation Xrotation
		JOINT Spine1
		{
			OFFSET 0.056720 2.048850 -0.042750 
			CHANNELS 3 Zrotation Yrotation Xrotation
			JOINT Neck1
			{
				OFFSET -0.054170 1.746240 0.172020 
				CHANNELS 3 Zrotation Yrotation Xrotation
				JOINT Head
				{
					OFFSET 0.104070 1.761360 -0.123970 
					CHANNELS 3 Zrotation Yrotation Xrotation
					End Site
					{
						OFFSET 0.000000 0.000000 0.000000 
					}
				}
			}
			JOINT LeftArm
			{
				OFFSET 3.362410 1.200890 -0.311210 
				CHANNELS 3 Zrotation Yrotation Xrotation
				JOINT LeftForeArm
				{
					OFFSET 4.983000 -0.000000 -0.000000 
					CHANNELS 3 Zrotation Yrotation Xrotation
					JOINT LeftHand
					{
						OFFSET 3.483560 -0.000000 -0.000000 
						CHANNELS 3 Zrotation Yrotation Xrotation
						JOINT LeftHandIndex1
						{
							OFFSET 0.715260 -0.000000 -0.000000 
							CHANNELS 3 Zrotation Yrotation Xrotation
							End Site
							{
								OFFSET 0.000000 0.000000 0.000000 
							}
						}
					}
				}
			}
			JOINT RightArm
			{
				OFFSET -3.136600 1.374050 -0.404650 
				CHANNELS 3 Zrotation Yrotation Xrotation
				JOINT RightForeArm
				{
					OFFSET -5.241900 -0.000000 -0.000000 
					CHANNELS 3 Zrotation Yrotation Xrotation
					JOINT RightHand
					{
						OFFSET -3.444170 -0.000000 -0.000000 
						CHANNELS 3 Zrotation Yrotation Xrotation
						JOINT RightHandIndex1
						{
							OFFSET -0.622530 -0.000000 -0.000000 
							CHANNELS 3 Zrotation Yrotation Xrotation
							End Site
							{
								OFFSET 0.000000 0.000000 0.000000 
							}
						}
					}
				}
			}
		}
	}
}
MOTION
Frames: 18
Frame Time: 0.041667
-37.763971 17.487792 -6.181856 -39.269398 82.066512 -42.395833 -25.385821 24.411787 8.397490 -0.174282 -0.598043 -0.776650 0.575074 -4.883711 1.672450 1.128000 6.745800 18.964500 16.656189 19.755320 -72.233570 -37.039860 -14.148200 142.999876 -0.998724 3.277126 -9.050530 -3.659400 11.692800 -34.653600 1.196085 -1.059574 -0.547095 -2.183964 -0.455274 0.040540 7.497587 1.017123 4.930303 0.482500 0.663700 1.683400 -79.985438 1.028138 17.566571 10.195683 -19.748344 -2.540366 -0.858723 -0.362404 -16.175071 -7.125000 0.000000 0.000000 80.315449 -6.613764 18.264669 -13.749975 24.841615 -3.743691 0.747553 -0.308140 1.094026 7.125000 0.000000 0.000000 
-37.761733 17.490335 -6.187349 -39.451076 82.140806 -42.532310 -25.482069 24.329968 8.321965 -0.172953 -0.596678 -0.777621 0.570371 -4.822427 1.622714 1.080000 6.605500 18.551700 16.698254 19.633098 -72.228144 -37.048040 -14.143845 143.020235 -1.005094 3.283079 -9.128485 -3.661300 11.695500 -34.663000 1.201759 -1.088894 -0.565182 -2.178080 -0.471655 -0.020170 7.480340 1.023696 4.915032 0.470600 0.664900 1.665300 -80.064476 1.084064 17.508910 10.171478 -19.718339 -2.533354 -0.860182 -0.361514 -16.099063 -7.125000 0.000000 0.000000 80.325129 -6.731882 18.491416 -13.900611 25.020795 -3.800666 0.754027 -0.300660 0.769360 7.125000 0.000000 0.000000 
-37.760410 17.492980 -6.192334 -39.697775 82.235785 -42.706574 -25.595689 24.220151 8.224078 -0.171592 -0.595059 -0.779051 0.565201 -4.754736 1.590046 1.041900 6.491700 18.217900 16.725031 19.471225 -72.274852 -37.061486 -14.133079 143.063345 -1.030118 3.422826 -9.159709 -3.633300 11.655800 -34.524900 1.209583 -1.126756 -0.575678 -2.158984 -0.492940 -0.029714 7.434046 1.010016 4.910601 0.442400 0.656300 1.666100 -80.129423 1.098315 17.504780 10.159291 -19.703083 -2.528040 -0.858335 -0.358774 -16.087756 -7.125000 0.000000 0.000000 80.353507 -6.743129 18.528439 -13.994038 25.125573 -3.835481 0.755589 -0.296773 0.637458 7.125000 0.000000 0.000000 
-37.757663 17.490640 -6.196403 -39.590940 82.194130 -42.601167 -25.601396 24.262143 8.214261 -0.171629 -0.594291 -0.779066 0.565151 -4.753988 1.592284 1.045200 6.501500 18.246600 16.912339 19.646524 -72.236778 -37.075539 -14.114780 143.131349 -0.994244 3.170325 -9.229325 -3.660400 11.694200 -34.658600 1.215634 -1.099539 -0.565154 -2.153336 -0.477707 0.009939 7.431759 0.993798 4.898747 0.443400 0.647000 1.657500 -80.175208 1.092621 17.539015 10.149648 -19.692182 -2.523929 -0.857363 -0.359851 -16.082846 -7.125000 0.000000 0.000000 80.386365 -6.706218 18.525218 -14.025813 25.160882 -3.846976 0.753278 -0.299522 0.594862 7.125000 0.000000 0.000000 
-37.755324 17.490234 -6.200778 -39.571252 82.208369 -42.567655 -25.649214 24.252078 8.184534 -0.171385 -0.593243 -0.779356 0.563469 -4.731914 1.585398 1.030800 6.458100 18.119500 17.024987 19.678970 -72.214661 -37.089620 -14.099345 143.189376 -0.973981 3.019242 -9.289517 -3.667200 11.703800 -34.692000 1.220527 -1.096538 -0.562732 -2.145610 -0.475821 0.021389 7.418294 0.985104 4.884754 0.436000 0.641100 1.647300 -80.221314 1.102576 17.565894 10.141667 -19.683221 -2.520273 -0.856307 -0.360518 -16.086891 -7.125000 0.000000 0.000000 80.419788 -6.702239 18.557904 -14.085577 25.228794 -3.869437 0.753547 -0.298844 0.515803 7.125000 0.000000 0.000000 
-37.753086 17.489521 -6.205152 -39.519450 82.207636 -42.517353 -25.679789 24.260483 8.173017 -0.171373 -0.592442 -0.779379 0.562361 -4.718454 1.585537 1.018500 6.420600 18.009600 17.154406 19.745720 -72.173973 -37.103417 -14.083886 143.248027 -0.947078 2.830191 -9.346510 -3.673800 11.713100 -34.724600 1.224479 -1.086110 -0.557388 -2.143849 -0.469567 0.035332 7.405790 0.976015 4.869177 0.428700 0.634900 1.635300 -80.257569 1.111805 17.608339 10.137074 -19.678684 -2.517737 -0.855133 -0.361889 -16.106354 -7.125000 0.000000 0.000000 80.459686 -6.691474 18.571659 -14.131852 25.281126 -3.886647 0.753240 -0.298897 0.478995 7.125000 0.000000 0.000000 
-37.750746 17.488809 -6.209425 -39.433315 82.199120 -42.446075 -25.700669 24.281435 8.175323 -0.171550 -0.591789 -0.779182 0.561732 -4.710601 1.590697 1.006500 6.383800 17.902100 17.286419 19.832981 -72.120409 -37.116479 -14.068757 143.305075 -0.918629 2.634641 -9.400579 -3.680000 11.722000 -34.755500 1.227262 -1.072308 -0.550475 -2.147241 -0.461353 0.048733 7.394191 0.968153 4.855983 0.421500 0.629600 1.625000 -80.286539 1.120446 17.656452 10.134851 -19.677098 -2.516002 -0.854387 -0.363838 -16.132618 -7.125000 0.000000 0.000000 80.501873 -6.679141 18.587328 -14.170635 25.324849 -3.900970 0.752916 -0.299114 0.465373 7.125000 0.000000 0.000000 
-37.748304 17.488402 -6.213595 -39.389111 82.187735 -42.424226 -25.709957 24.303435 8.186098 -0.171753 -0.591430 -0.778905 0.561215 -4.705033 1.598558 0.992200 6.339600 17.773100 17.423662 19.930708 -72.054876 -37.127526 -14.056407 143.353202 -0.893876 2.463435 -9.455606 -3.684700 11.728600 -34.778400 1.230052 -1.060299 -0.543298 -2.154848 -0.453884 0.059367 7.380407 0.962457 4.847567 0.412600 0.625700 1.618800 -80.310804 1.128048 17.703494 10.133842 -19.676804 -2.515063 -0.854080 -0.365909 -16.160978 -7.125000 0.000000 0.000000 80.543803 -6.668945 18.610158 -14.206279 25.365161 -3.913930 0.752805 -0.299116 0.468413 7.125000 0.000000 0.000000 
-37.745761 17.488199 -6.217868 -39.404170 82.171455 -42.466456 -25.706700 24.325499 8.201263 -0.171852 -0.591355 -0.778630 0.560582 -4.697907 1.606719 0.977000 6.292200 17.634600 17.570030 20.049067 -71.980037 -37.135581 -14.047922 143.388872 -0.873588 2.320322 -9.512638 -3.687800 11.733000 -34.793800 1.233253 -1.049643 -0.536400 -2.166998 -0.447212 0.066799 7.362780 0.957453 4.842258 0.401000 0.622400 1.615400 -80.332113 1.137188 17.746109 10.134367 -19.678124 -2.514671 -0.853996 -0.367423 -16.182986 -7.125000 0.000000 0.000000 80.585731 -6.659799 18.635025 -14.237282 25.400115 -3.924936 0.752368 -0.299346 0.486707 7.125000 0.000000 0.000000 
-37.743320 17.488097 -6.222039 -39.455710 82.159194 -42.544384 -25.703495 24.340483 8.213511 -0.171900 -0.591367 -0.778426 0.559841 -4.689516 1.615926 0.960300 6.239900 17.482000 17.704863 20.173572 -71.910109 -37.141357 -14.041881 143.415784 -0.861852 2.229725 -9.567519 -3.689600 11.735500 -34.802500 1.236623 -1.043142 -0.530541 -2.179465 -0.442820 0.071737 7.344058 0.954425 4.842917 0.389100 0.620400 1.617100 -80.353329 1.146301 17.774515 10.135224 -19.679463 -2.514604 -0.854232 -0.368437 -16.190319 -7.125000 0.000000 0.000000 80.623938 -6.655317 18.673085 -14.268971 25.435922 -3.935928 0.751701 -0.299713 0.501416 7.125000 0.000000 0.000000 
-37.740980 17.487996 -6.226006 -39.570585 82.151495 -42.680594 -25.699786 24.344992 8.219117 -0.171806 -0.591494 -0.778374 0.558672 -4.677124 1.625806 0.943000 6.184700 17.321400 17.830127 20.306174 -71.853120 -37.143956 -14.038874 143.431336 -0.851082 2.146613 -9.619651 -3.691600 11.738400 -34.812600 1.240679 -1.039318 -0.526422 -2.191058 -0.440140 0.071099 7.323526 0.950861 4.842865 0.376400 0.618000 1.618000 -80.374123 1.160453 17.794718 10.137965 -19.682983 -2.515243 -0.854450 -0.368395 -16.183162 -7.125000 0.000000 0.000000 80.661317 -6.658524 18.713796 -14.301993 25.473226 -3.947330 0.750900 -0.300370 0.509613 7.125000 0.000000 0.000000 
-37.738742 17.487792 -6.229872 -39.711843 82.151777 -42.838558 -25.702013 24.339553 8.218463 -0.171616 -0.591595 -0.778422 0.557233 -4.661267 1.633263 0.924200 6.124600 17.146300 17.934432 20.437853 -71.812876 -37.144251 -14.037892 143.438872 -0.841235 2.071110 -9.668513 -3.693500 11.741000 -34.821900 1.244812 -1.037425 -0.524337 -2.200287 -0.438662 0.063801 7.300518 0.944687 4.843172 0.362800 0.614300 1.619000 -80.395648 1.179343 17.805352 10.141999 -19.688032 -2.516319 -0.854430 -0.367613 -16.158141 -7.125000 0.000000 0.000000 80.699794 -6.663818 18.741048 -14.329440 25.503440 -3.956556 0.749473 -0.301741 0.517587 7.125000 0.000000 0.000000 
-37.736911 17.487690 -6.233433 -39.870021 82.163648 -43.006483 -25.714427 24.323403 8.212800 -0.171362 -0.591568 -0.778531 0.555667 -4.642103 1.635829 0.904600 6.061300 16.962300 18.013156 20.557755 -71.796708 -37.140522 -14.041099 143.434219 -0.817528 2.061121 -9.337139 -3.496300 11.458100 -33.840800 1.248985 -1.037962 -0.522595 -2.204880 -0.438806 0.057637 7.275936 0.935462 4.838819 0.349100 0.608600 1.616600 -80.417884 1.196810 17.807703 10.147879 -19.695399 -2.518118 -0.854514 -0.366279 -16.116843 -7.125000 0.000000 0.000000 80.737159 -6.669124 18.764302 -14.356015 25.532571 -3.965390 0.748124 -0.302993 0.512254 7.125000 0.000000 0.000000 
-37.735181 17.487385 -6.236790 -40.038823 82.181796 -43.183321 -25.730434 24.302786 8.208426 -0.171070 -0.591504 -0.778617 0.553799 -4.620711 1.634136 0.884400 5.994900 16.769600 18.076164 20.675229 -71.792458 -37.133545 -14.048047 143.418946 -0.781851 2.084445 -8.712254 -3.146000 10.927700 -32.036500 1.253396 -1.039292 -0.520150 -2.205745 -0.439303 0.053996 7.247937 0.922479 4.828583 0.333800 0.600400 1.609500 -80.441223 1.210407 17.801447 10.153242 -19.702135 -2.519943 -0.854543 -0.364205 -16.063173 -7.125000 0.000000 0.000000 80.772664 -6.671624 18.779997 -14.379664 25.558173 -3.973338 0.746778 -0.304012 0.496107 7.125000 0.000000 0.000000 
-37.733757 17.486876 -6.239841 -40.208101 82.207769 -43.357968 -25.752581 24.276847 8.204178 -0.170802 -0.591349 -0.778696 0.551973 -4.597939 1.631858 0.865100 5.930600 16.583300 18.121392 20.787518 -71.804194 -37.124370 -14.057411 143.397087 -0.734337 2.122418 -7.806687 -2.655200 10.114700 -29.349100 1.257934 -1.042225 -0.516292 -2.201540 -0.440794 0.056660 7.216918 0.906781 4.812017 0.316700 0.590200 1.598900 -80.463809 1.215682 17.789658 10.158610 -19.709062 -2.521850 -0.854762 -0.361896 -16.002686 -7.125000 0.000000 0.000000 80.804709 -6.669310 18.796412 -14.402813 25.583051 -3.980966 0.745772 -0.304347 0.464481 7.125000 0.000000 0.000000 
-37.732638 17.486266 -6.242588 -40.416876 82.243799 -43.569440 -25.777680 24.241061 8.200923 -0.170539 -0.591226 -0.778797 0.549935 -4.573645 1.630747 0.846300 5.867500 16.400500 18.151256 20.885815 -71.829263 -37.114911 -14.067777 143.372465 -0.682123 2.146894 -6.773753 -2.121200 9.114200 -26.153100 1.263174 -1.049842 -0.510255 -2.190860 -0.444770 0.067886 7.187233 0.892524 4.787132 0.300900 0.580300 1.584500 -80.485300 1.206788 17.773809 10.162796 -19.714347 -2.523591 -0.855236 -0.359609 -15.945034 -7.125000 0.000000 0.000000 80.831302 -6.655465 18.812509 -14.422290 25.603588 -3.987547 0.745314 -0.304218 0.425501 7.125000 0.000000 0.000000 
-37.731723 17.485249 -6.245131 -40.644240 82.289630 -43.800627 -25.807648 24.198089 8.199935 -0.170330 -0.591107 -0.778873 0.547707 -4.547179 1.633311 0.830200 5.812800 16.242300 18.162459 20.966890 -71.861111 -37.106614 -14.077001 143.349951 -0.637385 2.153911 -5.844200 -1.668500 8.138500 -23.135400 1.268466 -1.061435 -0.502612 -2.176151 -0.450806 0.083896 7.157946 0.881286 4.754402 0.285100 0.571300 1.566700 -80.504390 1.189354 17.759165 10.168260 -19.721037 -2.525779 -0.855570 -0.357515 -15.897427 -7.125000 0.000000 0.000000 80.852572 -6.637576 18.833812 -14.441144 25.623319 -3.993933 0.745336 -0.303567 0.381618 7.125000 0.000000 0.000000 
-37.731011 17.483926 -6.247573 -40.886071 82.342599 -44.045838 -25.842583 24.148593 8.196315 -0.170116 -0.590969 -0.779000 0.545269 -4.517501 1.639544 0.814100 5.757700 16.083000 18.153801 21.035150 -71.901568 -37.100207 -14.083283 143.333286 -0.607645 2.156538 -5.178217 -1.367300 7.400700 -20.908000 1.273231 -1.075293 -0.494905 -2.161575 -0.458018 0.098261 7.133051 0.873642 4.716724 0.271900 0.564000 1.545900 -80.518969 1.170718 17.750662 10.176196 -19.730925 -2.528678 -0.855834 -0.356302 -15.867430 -7.125000 0.000000 0.000000 80.871848 -6.621651 18.859933 -14.459441 25.642893 -4.000292 0.745816 -0.302622 0.337361 7.125000 0.000000 0.000000 
